<?xml version="1.0" encoding="utf-8"?>
<!-- Generator: Adobe Illustrator 19.2.1, SVG Export Plug-In . SVG Version: 6.00 Build 0)  -->
<svg version="1.1" id="layer" xmlns="http://www.w3.org/2000/svg" xmlns:xlink="http://www.w3.org/1999/xlink" x="0px" y="0px"
	 viewBox="0 0 652 652" style="enable-background:new 0 0 652 652;" xml:space="preserve">
<path d="M340.5,206.5H219.4c-8.3,0-15,6.6-15,14.8c0,8.2,6.7,14.8,15,14.8c0,0,0.1,0,0.1,0h120.9c0,0,0,0,0.1,0 
	c8.3,0,15-6.6,15-14.8C355.5,213.1,348.7,206.5,340.5,206.5" fill="url(#paint0_linear_16_339)"/>
<path d="M340.5,306.6H219.4c-8.3,0-15,6.6-15,14.8c0,8.2,6.7,14.8,15,14.8c0,0,0,0,0.1,0h121c0,0,0,0,0.1,0c8.3,0,15-6.6,15-14.8
	C355.5,313.3,348.7,306.6,340.5,306.6" fill="url(#paint0_linear_16_339)"/>
<path d="M504.1,407.9c-48.2,0-87.3-38.7-87.3-86.4c0-47.7,39.1-86.3,87.3-86.3c48.2,0,87.3,38.7,87.3,86.3
	C591.3,369.2,552.3,407.9,504.1,407.9 M504.1,206.5c-64.2,0-116.3,51.5-116.3,115.1s52.1,115.1,116.3,115.1
	c64.2,0,116.3-51.5,116.3-115.1S568.3,206.5,504.1,206.5" fill="url(#paint0_linear_16_339)"/>
<path d="M156.5,406.8L156.5,406.8H50.3V221.3c0-8.2-6.7-14.8-15-14.8c-8.3,0-15,6.6-15,14.8v200.4c0,8.2,6.7,14.8,15,14.8
	c0,0,0.1,0,0.1,0h120.9c0,0,0.1,0,0.1,0c8.3,0,15-6.6,15-14.8C171.4,413.4,164.7,406.8,156.5,406.8" fill="url(#paint0_linear_16_339)"/>
<path d="M340.5,406.8H219.4c-8.3,0-15,6.6-15,14.8c0,8.2,6.7,14.8,15,14.8c0,0,0.1,0,0.1,0h120.9c0,0,0.1,0,0.1,0
	c8.3,0,15-6.6,15-14.8C355.5,413.4,348.7,406.8,340.5,406.8" fill="url(#paint0_linear_16_339)"/>
	<defs>
<linearGradient id="paint0_linear_16_339" x1="-12.4348" y1="91.2145" x2="3`8.124" y2="`92.098" gradientUnits="userSpaceOnUse">
<stop stop-color="#1c92d2"/>
<stop offset="1" stop-color="#f2fcfe"/>
<stop stop-color="#1c92d2"/>
</linearGradient>
</defs>
</svg>
